<?xml version="1.0" encoding="UTF-8"?>
<svg width="42px" height="42px" viewBox="0 0 42 42" version="1.1" xmlns="http://www.w3.org/2000/svg" xmlns:xlink="http://www.w3.org/1999/xlink">
    <title>编组 7</title>
    <g id="帮助中心" stroke="none" stroke-width="1" fill="none" fill-rule="evenodd">
        <g id="文章内容" transform="translate(-359.000000, -434.000000)">
            <g id="编组-7" transform="translate(359.000000, 434.000000)">
                <circle id="椭圆形" fill="#171717" cx="21" cy="21" r="21"></circle>
                <path d="M21.5815047,30 C22.992163,30 24.281348,29.7424042 25.4490596,29.2272127 C26.6167712,28.7120211 27.4670846,28.0184941 28,27.1466314 L28,27.1466314 L28,20.0607662 L21.4169279,20.0607662 L21.4169279,23.0330251 L24.661442,23.0330251 L24.661442,25.8626156 C23.9717868,26.5442536 23.015674,26.8850727 21.7931034,26.8850727 C20.7429467,26.8850727 19.8221003,26.6472919 19.0305643,26.1717305 C18.2390282,25.6961691 17.6277429,25.014531 17.1967085,24.1268164 C16.765674,23.2391017 16.5501567,22.1928666 16.5501567,20.988111 C16.5501567,19.8150594 16.7617555,18.7846764 17.184953,17.8969617 C17.6081505,17.009247 18.1880878,16.327609 18.9247649,15.8520476 C19.661442,15.3764861 20.492163,15.1387054 21.4169279,15.1387054 C22.2946708,15.1387054 23.0548589,15.348745 23.6974922,15.7688243 C24.3401254,16.1889036 24.8338558,16.7635403 25.1786834,17.4927345 L25.1786834,17.4927345 L28,15.8520476 C27.5924765,14.7265522 26.8048589,13.8031704 25.6371473,13.0819022 C24.4694357,12.3606341 23.0940439,12 21.5109718,12 C19.9278997,12 18.4858934,12.3725231 17.184953,13.1175694 C15.8840125,13.8626156 14.8612853,14.9167768 14.1167712,16.2800528 C13.3722571,17.6433289 13,19.2126816 13,20.988111 C13,22.7476882 13.3605016,24.3091149 14.0815047,25.672391 C14.8025078,27.0356671 15.8134796,28.0977543 17.1144201,28.8586526 C18.4153605,29.6195509 19.9043887,30 21.5815047,30 Z" id="G" fill="#FFFFFF" fill-rule="nonzero"></path>
            </g>
        </g>
    </g>
</svg>