<?xml version="1.0" encoding="UTF-8"?>
<svg width="94px" height="29px" viewBox="0 0 94 29" version="1.1" xmlns="http://www.w3.org/2000/svg" xmlns:xlink="http://www.w3.org/1999/xlink">
    <title>编组 2@3x</title>
    <g id="页面-1" stroke="none" stroke-width="1" fill="none" fill-rule="evenodd">
        <g id="帮助中心" transform="translate(-42.000000, -19.000000)">
            <g id="编组-2" transform="translate(42.000000, 19.000000)">
                <rect id="矩形" fill="#FFFFFF" x="0" y="0.505" width="28.21" height="28.21" rx="7.28"></rect>
                <path d="M14.76462,23.41392 C16.18422,23.41392 17.4815767,23.1576033 18.65669,22.64497 C19.8318033,22.1323367 20.6875067,21.4422533 21.2238,20.57472 L21.2238,20.57472 L21.2238,13.52404 L14.599,13.52404 L14.599,16.48154 L17.86408,16.48154 L17.86408,19.29708 C17.1700533,19.9753333 16.20788,20.31446 14.97756,20.31446 C13.9207467,20.31446 12.9940633,20.07786 12.19751,19.60466 C11.4009567,19.13146 10.7857967,18.4532067 10.35203,17.5699 C9.91826333,16.6865933 9.70138,15.6455533 9.70138,14.44678 C9.70138,13.2795533 9.91432,12.2542867 10.3402,11.37098 C10.76608,10.4876733 11.3496933,9.80942 12.09104,9.33622 C12.8323867,8.86302 13.6683733,8.62642 14.599,8.62642 C15.4823067,8.62642 16.2473133,8.83541667 16.89402,9.25341 C17.5407267,9.67140333 18.0375867,10.2431867 18.3846,10.96876 L18.3846,10.96876 L21.2238,9.33622 C20.8136933,8.21631333 20.0210833,7.29751667 18.84597,6.57983 C17.6708567,5.86214333 16.2867467,5.5033 14.69364,5.5033 C13.1005333,5.5033 11.6493867,5.87397333 10.3402,6.61532 C9.03101333,7.35666667 8.00180333,8.40559333 7.25257,9.7621 C6.50333667,11.1186067 6.12872,12.6801667 6.12872,14.44678 C6.12872,16.19762 6.49150667,17.7512933 7.21708,19.1078 C7.94265333,20.4643067 8.96003333,21.52112 10.26922,22.27824 C11.5784067,23.03536 13.0768733,23.41392 14.76462,23.41392 Z" id="G" fill="#000000" fill-rule="nonzero"></path>
                <path d="M44.16462,23.69392 C45.58422,23.69392 46.8815767,23.4376033 48.05669,22.92497 C49.2318033,22.4123367 50.0875067,21.7222533 50.6238,20.85472 L50.6238,20.85472 L50.6238,13.80404 L43.999,13.80404 L43.999,16.76154 L47.26408,16.76154 L47.26408,19.57708 C46.5700533,20.2553333 45.60788,20.59446 44.37756,20.59446 C43.3207467,20.59446 42.3940633,20.35786 41.59751,19.88466 C40.8009567,19.41146 40.1857967,18.7332067 39.75203,17.8499 C39.3182633,16.9665933 39.10138,15.9255533 39.10138,14.72678 C39.10138,13.5595533 39.31432,12.5342867 39.7402,11.65098 C40.16608,10.7676733 40.7496933,10.08942 41.49104,9.61622 C42.2323867,9.14302 43.0683733,8.90642 43.999,8.90642 C44.8823067,8.90642 45.6473133,9.11541667 46.29402,9.53341 C46.9407267,9.95140333 47.4375867,10.5231867 47.7846,11.24876 L47.7846,11.24876 L50.6238,9.61622 C50.2136933,8.49631333 49.4210833,7.57751667 48.24597,6.85983 C47.0708567,6.14214333 45.6867467,5.7833 44.09364,5.7833 C42.5005333,5.7833 41.0493867,6.15397333 39.7402,6.89532 C38.4310133,7.63666667 37.4018033,8.68559333 36.65257,10.0421 C35.9033367,11.3986067 35.52872,12.9601667 35.52872,14.72678 C35.52872,16.47762 35.8915067,18.0312933 36.61708,19.3878 C37.3426533,20.7443067 38.3600333,21.80112 39.66922,22.55824 C40.9784067,23.31536 42.4768733,23.69392 44.16462,23.69392 Z M60.86858,23.69392 C62.4143667,23.69392 63.81425,23.3350767 65.06823,22.61739 C66.32221,21.8997033 67.31593,20.8626067 68.04939,19.5061 C68.78285,18.1495933 69.14958,16.5564867 69.14958,14.72678 C69.14958,12.9128467 68.78285,11.3276267 68.04939,9.97112 C67.31593,8.61461333 66.32221,7.57751667 65.06823,6.85983 C63.81425,6.14214333 62.4143667,5.7833 60.86858,5.7833 C59.3227933,5.7833 57.92291,6.14214333 56.66893,6.85983 C55.41495,7.57751667 54.4251733,8.61461333 53.6996,9.97112 C52.9740267,11.3276267 52.61124,12.9128467 52.61124,14.72678 C52.61124,16.5564867 52.9740267,18.1495933 53.6996,19.5061 C54.4251733,20.8626067 55.41495,21.8997033 56.66893,22.61739 C57.92291,23.3350767 59.3227933,23.69392 60.86858,23.69392 Z M60.86858,20.54714 C59.9537267,20.54714 59.1453433,20.3065967 58.44343,19.82551 C57.7415167,19.3444233 57.1973367,18.6622267 56.81089,17.77892 C56.4244433,16.8956133 56.23122,15.8782333 56.23122,14.72678 C56.23122,13.5753267 56.4244433,12.56189 56.81089,11.68647 C57.1973367,10.81105 57.7415167,10.1327967 58.44343,9.65171 C59.1453433,9.17062333 59.9537267,8.93008 60.86858,8.93008 C61.7834333,8.93008 62.5918167,9.17062333 63.29373,9.65171 C63.9956433,10.1327967 64.5398233,10.81105 64.92627,11.68647 C65.3127167,12.56189 65.50594,13.5753267 65.50594,14.72678 C65.50594,15.8782333 65.3127167,16.8956133 64.92627,17.77892 C64.5398233,18.6622267 63.9956433,19.3444233 63.29373,19.82551 C62.5918167,20.3065967 61.7834333,20.54714 60.86858,20.54714 Z M78.56626,23.41 L82.0916,12.10052 L85.73524,23.41 L88.38516,23.41 L93.77964,6.09088 L90.46724,6.09088 L87.15484,17.7316 L83.55852,6.09088 L80.81396,6.09088 L77.40692,17.7316 L73.85792,6.09088 L70.30892,6.09088 L75.94,23.41 L78.56626,23.41 Z" id="GOW" fill="#FFFFFF" fill-rule="nonzero"></path>
            </g>
        </g>
    </g>
</svg>