<?xml version="1.0" encoding="UTF-8"?>
<svg width="24px" height="24px" viewBox="0 0 24 24" version="1.1" xmlns="http://www.w3.org/2000/svg" xmlns:xlink="http://www.w3.org/1999/xlink">
    <title>国际化_international</title>
    <g id="页面-1" stroke="none" stroke-width="1" fill="none" fill-rule="evenodd">
        <g id="帮助中心" transform="translate(-1784.000000, -20.000000)">
            <g id="国际化_international" transform="translate(1784.000000, 20.000000)">
                <rect id="矩形" fill-rule="nonzero" x="0" y="0" width="24" height="24"></rect>
                <path d="M12,22.0001 C17.52285,22.0001 22,17.52295 22,12.0001 C22,6.47725 17.52285,2.00012 12,2.00012 C6.47715,2.00012 2,6.47725 2,12.0001 C2,17.52295 6.47715,22.0001 12,22.0001 Z" id="路径" stroke="#FFFFFF" stroke-width="2"></path>
                <path d="M3,15.4928 C4.31596,16.0205 5.2633,16.0205 5.84195,15.4928 C6.70995,14.70125 5.96095,12.2989 7.1766,11.63635 C8.3922,10.9738 10.2443,13.9107 11.9754,12.94435 C13.70645,11.97795 11.8123,9.40115 13.0136,8.3565 C14.2149,7.31185 15.777,8.49 16.05005,6.74325 C16.3231,4.99652 14.77605,5.7541 14.4792,4.103465 C14.28125,3.003055 14.28125,2.42442 14.4792,2.367555" id="路径" stroke="#FFFFFF" stroke-width="2" stroke-linecap="round"></path>
                <path d="M14.5105,21.67525 C13.57345,20.71625 13.2361,19.82485 13.4985,19.00095 C13.8921,17.76515 14.54135,17.8382 14.82445,17.0741 C15.1075,16.30995 14.30785,15.22165 16.0822,14.2913 C17.2651,13.67105 18.89155,14.3897 20.96145,16.4472" id="路径" stroke="#FFFFFF" stroke-width="2" stroke-linecap="round"></path>
            </g>
        </g>
    </g>
</svg>