<?xml version="1.0" encoding="UTF-8"?>
<svg width="23px" height="22px" viewBox="0 0 23 22" version="1.1" xmlns="http://www.w3.org/2000/svg" xmlns:xlink="http://www.w3.org/1999/xlink">
    <title>客服</title>
    <g id="页面-1" stroke="none" stroke-width="1" fill="none" fill-rule="evenodd">
        <g id="帮助中心" transform="translate(-1635.000000, -21.000000)" fill="#FFFFFF" fill-rule="nonzero">
            <g id="客服" transform="translate(1635.000000, 21.000000)">
                <path d="M3.91286246,8.14467733 C3.5788383,8.00425186 3.2448119,7.95744344 2.86307064,7.95744344 L2.57676358,7.95744344 C2.38589228,7.95744344 2.19502008,8.00425186 2.00414945,8.09786891 C1.38381822,8.2851028 0.858921192,8.6595708 0.477177695,9.17446492 C0.143153532,9.6425491 0,10.1574432 0,10.7659529 L0,13.5744623 C0,14.7914838 0.811204094,15.8212698 1.90871302,16.1957451 C2.14730298,16.2893621 2.43361005,16.3361705 2.76763421,16.3361705 L2.91078774,16.3361705 C3.2448119,16.3361705 3.5788383,16.2893621 3.86514537,16.1489367 C4.19916953,16.0553196 4.48547659,15.8680857 4.72406656,15.6808525 C5.34439779,15.1659584 5.77385838,14.3702155 5.77385838,13.5276627 L5.77385838,10.7191532 C5.72614061,9.59574946 4.96265429,8.5659634 3.91286246,8.14469357 L3.91286246,8.14467733 Z M3.8174267,13.5744695 C3.8174267,13.8085127 3.72199094,14.0425537 3.57883674,14.1829792 C3.38796543,14.3702131 3.14937614,14.5106379 2.86306908,14.5106379 C2.33817205,14.5106379 1.90871145,14.0893615 1.90871145,13.5744673 L1.90871145,10.7659579 C1.90871145,10.4382992 2.09958275,10.1106383 2.38588914,9.97021285 C2.52904268,9.87659579 2.67219621,9.82978737 2.86306684,9.82978737 C3.38796387,9.82978737 3.8174267,10.2510638 3.8174267,10.7659579 L3.8174267,13.5744673 L3.8174267,13.5744695 Z M20.1846397,16.382979 C19.8506156,16.8042554 19.5165892,17.178724 19.0871286,17.5531905 C17.9896174,18.5829765 16.7012289,19.4255294 15.2219832,19.9404235 C15.269701,19.799998 15.269701,19.6127648 15.269701,19.4255294 C15.269701,18.9106352 15.1265475,18.4425511 14.8879575,18.0680824 C16.1763393,17.5531883 17.3215675,16.7574454 18.2281991,15.7276506 C18.4667891,15.9148845 18.8008132,16.1021192 19.0871203,16.1957348 C19.3734274,16.2893518 19.7074515,16.3829686 20.0414779,16.3829686 L20.1846397,16.3829686 L20.1846397,16.382979 Z M22.4273859,9.17447875 C22.0933617,8.65958462 21.5207476,8.28511816 20.9481335,8.09788274 L20.3755193,7.95745727 L20.0892123,7.95745727 C19.7074688,7.95745727 19.3734446,8.00426568 19.0394204,8.14469115 C17.9896286,8.56596757 17.2261416,9.54894587 17.2261416,10.7659739 L17.2261416,13.5744834 C17.2261416,14.4638439 17.6078851,15.2127813 18.2759334,15.7276732 C18.5145234,15.9149071 18.8485476,16.1021418 19.1348546,16.1957574 C19.4211617,16.2893744 19.7551859,16.3829912 20.0892123,16.3829912 L20.2323658,16.3829912 C20.5186729,16.3829912 20.8049799,16.3361828 21.091287,16.2425658 C22.1887981,15.8680971 23,14.8383111 23,13.621283 L23,10.8127736 C22.9045642,10.2042639 22.7136929,9.64256204 22.4273859,9.17447568 L22.4273859,9.17447875 Z M20.9958506,13.5744695 C20.9958506,14.0893637 20.56639,14.5106401 20.0414929,14.5106401 C19.7551859,14.5106401 19.5165959,14.3702146 19.3257253,14.1829814 C19.1825717,14.0425559 19.0871353,13.8085127 19.0871353,13.5744717 L19.0871353,10.7659623 C19.0871353,10.2510682 19.5165959,9.82979176 20.0414929,9.82979176 C20.2323642,9.82979176 20.3755171,9.87660018 20.5186706,9.97021723 C20.8049777,10.1106427 20.9958506,10.4383014 20.9958506,10.7659623 L20.9958506,13.5744717 L20.9958506,13.5744695 Z M20.9004148,8.09787615 L20.3278007,7.95745068 L20.0414936,7.95745068 C19.6597501,7.95745068 19.3257259,8.0042591 18.9917018,8.14468457 C18.3713705,4.58724661 15.2219996,1.87233954 11.452275,1.87233954 C7.68257274,1.87233954 4.53319503,4.58722467 3.91284815,8.14468457 C3.57882399,8.0042591 3.24479759,7.95745068 2.86305633,7.95745068 L2.57674926,7.95745068 C2.38587796,7.95745068 2.19500576,8.0042591 2.00413513,8.09787615 C2.62446636,3.51063678 6.63275855,0 11.4522683,0 C16.271778,0 20.2800769,3.51063678 20.9004148,8.09787615 L20.9004148,8.09787615 Z M14.8879664,18.0680846 C14.4107887,17.3191495 13.5995847,16.8510631 12.6452203,16.8510631 L10.2593207,16.8510631 C9.30496303,16.8510631 8.49376118,17.3191473 8.01657453,18.0680846 C7.77798457,18.4425533 7.63483104,18.9106374 7.63483104,19.4255316 C7.63483104,19.6127655 7.63483104,19.8000002 7.68254881,19.9404257 C7.92113877,21.1106372 8.97093059,22 10.2593124,22 L12.645212,22 C13.9335938,22 14.9833789,21.1106394 15.2219756,19.9404257 C15.2696934,19.8000002 15.2696934,19.612767 15.2696934,19.4255316 C15.2696934,18.9106374 15.1265399,18.4425533 14.8879499,18.0680846 L14.8879664,18.0680846 Z M12.6452203,20.1276589 L10.2593207,20.1276589 C9.87757716,20.1276589 9.543553,19.8000002 9.543553,19.4255316 C9.543553,19.0510629 9.87757716,18.7234042 10.2593207,18.7234042 L12.6452203,18.7234042 C13.0269638,18.7234042 13.360988,19.0510629 13.360988,19.4255316 C13.360988,19.8000002 13.0269638,20.1276589 12.6452203,20.1276589 Z" id="形状"></path>
            </g>
        </g>
    </g>
</svg>