<?xml version="1.0" encoding="UTF-8"?>
<svg width="69px" height="78px" viewBox="0 0 69 78" version="1.1" xmlns="http://www.w3.org/2000/svg" xmlns:xlink="http://www.w3.org/1999/xlink">
    <title>编组 4</title>
    <defs>
        <path d="M4.8,-7.38964445e-14 L37.4926402,-7.38964445e-14 L37.4926402,-7.38964445e-14 L47.2,9.8048667 L47.2,54.96 C47.2,57.6109668 45.0509668,59.76 42.4,59.76 L4.8,59.76 C2.1490332,59.76 3.85644705e-15,57.6109668 0,54.96 L0,4.8 C-3.24649801e-16,2.1490332 2.1490332,-7.34094698e-14 4.8,-7.38964445e-14 Z" id="path-1"></path>
        <filter x="-28.6%" y="-22.6%" width="157.2%" height="145.2%" filterUnits="objectBoundingBox" id="filter-2">
            <feOffset dx="0" dy="0" in="SourceAlpha" result="shadowOffsetOuter1"></feOffset>
            <feGaussianBlur stdDeviation="4.5" in="shadowOffsetOuter1" result="shadowBlurOuter1"></feGaussianBlur>
            <feColorMatrix values="0 0 0 0 0.0933549867   0 0 0 0 0.095902942   0 0 0 0 0.103600543  0 0 0 0.13 0" type="matrix" in="shadowBlurOuter1"></feColorMatrix>
        </filter>
    </defs>
    <g id="帮助中心" stroke="none" stroke-width="1" fill="none" fill-rule="evenodd">
        <g id="iPhone-11-Pro备份-4" transform="translate(-153.000000, -357.000000)">
            <g id="编组-4" transform="translate(153.000000, 362.000000)">
                <circle id="椭圆形" fill="#E8EDF8" cx="34.4" cy="34.4" r="34.4"></circle>
                <g id="编组-3" transform="translate(10.400000, 4.000000)">
                    <g id="矩形" fill-rule="nonzero">
                        <use fill="black" fill-opacity="1" filter="url(#filter-2)" xlink:href="#path-1"></use>
                        <use fill="#FCFDFE" xlink:href="#path-1"></use>
                    </g>
                    <path d="M37.4926402,-1.8189894e-13 L37.4926402,8.2048667 C37.4926402,9.0885223 38.2089846,9.8048667 39.0926402,9.8048667 L47.28,9.8048667 L47.28,9.8048667 L37.4926402,-1.8189894e-13 Z" id="路径-3" fill="#D6DCE8"></path>
                </g>
                <line x1="18.2641644" y1="15.7122572" x2="31.4754035" y2="15.7122572" id="路径-15" stroke="#D6DCE8" stroke-width="2.4"></line>
                <line x1="18.2641644" y1="22.4" x2="37.4641644" y2="22.4" id="路径-15备份-2" stroke="#D6DCE8" stroke-width="2.4"></line>
                <line x1="18.2641644" y1="36" x2="37.4641644" y2="36" id="路径-15备份-3" stroke="#D6DCE8" stroke-width="2.4"></line>
                <line x1="18.2641644" y1="43.2" x2="37.4641644" y2="43.2" id="路径-15备份-4" stroke="#D6DCE8" stroke-width="2.4"></line>
                <line x1="18.2641644" y1="50.4" x2="37.4641644" y2="50.4" id="路径-15备份-5" stroke="#D6DCE8" stroke-width="2.4"></line>
                <g id="编组-36" transform="translate(18.400000, 19.200000)" fill-rule="nonzero">
                    <path d="M16.8,2.55795385e-14 C26.0783838,2.55795385e-14 33.6,7.5216162 33.6,16.8 C33.6,20.4052268 32.4643835,23.7452161 30.5313468,26.4817719 C30.5642746,26.5088079 30.5953974,26.5385431 30.6259885,26.5691342 L47.0308658,42.9740115 C48.1243338,44.0674796 48.1243338,45.8403415 47.0308658,46.9338095 L45.3338095,48.6308658 C44.2403415,49.7243338 42.4674796,49.7243338 41.3740115,48.6308658 L24.9691342,32.2259885 C24.8085167,32.0653709 24.671492,31.8900947 24.5580601,31.7044661 C22.2383136,32.9154534 19.599099,33.6 16.8,33.6 C7.5216162,33.6 1.10844667e-13,26.0783838 1.10844667e-13,16.8 C1.10844667e-13,7.5216162 7.5216162,2.55795385e-14 16.8,2.55795385e-14 Z M16.8,4.8 C10.172583,4.8 4.8,10.172583 4.8,16.8 C4.8,23.427417 10.172583,28.8 16.8,28.8 C23.427417,28.8 28.8,23.427417 28.8,16.8 C28.8,10.172583 23.427417,4.8 16.8,4.8 Z" id="形状结合" fill="#989FB0"></path>
                    <circle id="椭圆形" fill="#FFFFFF" cx="16.8" cy="16.8" r="12"></circle>
                    <path d="M17.0571363,19.7216 C16.9899363,19.4432 16.9563363,19.1696 16.9563363,18.9008 C16.9563363,18.5168 17.0211363,18.1784 17.1507363,17.8856 C17.2803363,17.5928 17.4411363,17.3408 17.6331363,17.1296 C17.8251363,16.9184 18.0795363,16.664 18.3963363,16.3664 C18.8475363,15.9728 19.1859363,15.6152 19.4115363,15.2936 C19.6371363,14.972 19.7499363,14.5712 19.7499363,14.0912 C19.7499363,13.6208 19.6299363,13.196 19.3899363,12.8168 C19.1499363,12.4376 18.8139363,12.14 18.3819363,11.924 C17.9499363,11.708 17.4507363,11.6 16.8843363,11.6 C16.1259363,11.6 15.4563363,11.7944 14.8755363,12.1832 C14.2947363,12.572 13.8843363,13.1168 13.6443363,13.8176 C13.4043363,14.5184 14.1963363,15.4784 14.6379363,14.3936 C15.0795363,13.3088 15.7899363,12.7664 16.7691363,12.7664 C17.2491363,12.7664 17.6379363,12.896 17.9355363,13.1552 C18.2331363,13.4144 18.3819363,13.76 18.3819363,14.192 C18.3819363,14.5376 18.2907363,14.8376 18.1083363,15.092 C17.9259363,15.3464 17.6475363,15.6416 17.2731363,15.9776 C16.9659363,16.2656 16.7211363,16.5128 16.5387363,16.7192 C16.3563363,16.9256 16.2003363,17.18 16.0707363,17.4824 C15.9411363,17.7848 15.8763363,18.1328 15.8763363,18.5264 C15.8763363,18.8912 15.9387363,19.2896 16.0635363,19.7216 C16.1883363,20.1536 17.1243363,20 17.0571363,19.7216 Z M16.6827363,22.8464 C16.9131363,22.8464 17.1075363,22.7648 17.2659363,22.6016 C17.4243363,22.4384 17.5035363,22.2464 17.5035363,22.0256 C17.5035363,21.7952 17.4243363,21.5984 17.2659363,21.4352 C17.1075363,21.272 16.9131363,21.1904 16.6827363,21.1904 C16.4619363,21.1904 16.2723363,21.272 16.1139363,21.4352 C15.9555363,21.5984 15.8763363,21.7952 15.8763363,22.0256 C15.8763363,22.2464 15.9555363,22.4384 16.1139363,22.6016 C16.2723363,22.7648 16.4619363,22.8464 16.6827363,22.8464 Z" id="?" fill="#989FB0" transform="translate(16.674968, 17.223200) rotate(30.000000) translate(-16.674968, -17.223200) "></path>
                </g>
            </g>
        </g>
    </g>
</svg>