<?xml version="1.0" encoding="UTF-8"?>
<svg width="17px" height="17px" viewBox="0 0 17 17" version="1.1" xmlns="http://www.w3.org/2000/svg" xmlns:xlink="http://www.w3.org/1999/xlink">
    <title>telegram</title>
    <g id="页面-1" stroke="none" stroke-width="1" fill="none" fill-rule="evenodd">
        <g id="帮助中心-列表页" transform="translate(-402.000000, -1567.000000)" fill="#8A9199" fill-rule="nonzero">
            <g id="编组-9" transform="translate(0.000000, 1322.000000)">
                <g id="telegram" transform="translate(402.000000, 245.000000)">
                    <path d="M11.2795131,12.3990906 L12.6741224,5.82494721 C12.7973725,5.24633892 12.4652645,5.01865984 12.0858005,5.16073286 L3.88936712,8.31969845 C3.32958005,8.53766228 3.33929529,8.85094907 3.79465277,8.99302043 L5.89111713,9.64752119 L10.757987,6.58326762 C10.9856661,6.43148168 11.194524,6.5170889 11.0239162,6.66887484 L7.08719967,10.226129 L6.93541373,12.3893815 C7.15337756,12.3893815 7.24870052,12.2946671 7.36223542,12.1805236 L8.38648661,11.1939149 L10.5114891,12.7591303 C10.9006683,12.9770941 11.1757034,12.863559 11.2801324,12.3984875 L11.2795131,12.3990906 Z M17.0000198,8.5 C17.0000198,13.1956511 13.1956511,17.0000198 8.5,17.0000198 C3.80436868,17.0000198 0,13.1956511 0,8.5 C0,3.80436868 3.80436868,0 8.5,0 C13.1956511,0 17.0000198,3.80436868 17.0000198,8.5 Z" id="形状"></path>
                </g>
            </g>
        </g>
    </g>
</svg>