<?xml version="1.0" encoding="UTF-8"?>
<svg width="17px" height="17px" viewBox="0 0 17 17" version="1.1" xmlns="http://www.w3.org/2000/svg" xmlns:xlink="http://www.w3.org/1999/xlink">
    <title>twitter-circle-fill</title>
    <g id="页面-1" stroke="none" stroke-width="1" fill="none" fill-rule="evenodd">
        <g id="帮助中心-列表页" transform="translate(-361.000000, -1567.000000)" fill="#8A9199" fill-rule="nonzero">
            <g id="编组-9" transform="translate(0.000000, 1322.000000)">
                <g id="twitter-circle-fill" transform="translate(361.000000, 245.000000)">
                    <path d="M8.4,0 C3.76125,0 0,3.76125 0,8.4 C0,13.03875 3.76125,16.8 8.4,16.8 C13.03875,16.8 16.8,13.03875 16.8,8.4 C16.8,3.76125 13.03875,0 8.4,0 Z M12.436875,6.331875 C12.4425,6.42 12.4425,6.511875 12.4425,6.601875 C12.4425,9.354375 10.34625,12.525 6.515625,12.525 C5.334375,12.525 4.239375,12.181875 3.316875,11.59125 C3.485625,11.61 3.646875,11.6175 3.819375,11.6175 C4.794375,11.6175 5.690625,11.2875 6.405,10.72875 C5.49,10.71 4.72125,10.11 4.45875,9.285 C4.779375,9.331875 5.068125,9.331875 5.398125,9.2475 C4.445625,9.054375 3.73125,8.21625 3.73125,7.20375 L3.73125,7.1775 C4.006875,7.333125 4.33125,7.42875 4.670625,7.441875 C4.09125,7.055625 3.7425,6.405 3.7425,5.709375 C3.7425,5.32125 3.84375,4.966875 4.025625,4.659375 C5.05125,5.923125 6.5925,6.748125 8.319375,6.83625 C8.025,5.420625 9.0825,4.275 10.35375,4.275 C10.95375,4.275 11.49375,4.52625 11.874375,4.93125 C12.345,4.843125 12.795,4.666875 13.19625,4.430625 C13.040625,4.9125 12.714375,5.319375 12.28125,5.57625 C12.70125,5.53125 13.10625,5.415 13.48125,5.251875 C13.198125,5.668125 12.84375,6.0375 12.436875,6.331875 L12.436875,6.331875 Z" id="形状"></path>
                </g>
            </g>
        </g>
    </g>
</svg>